<?xml version="1.0" encoding="utf-8"?>
<!-- Generator: Adobe Illustrator 17.0.0, SVG Export Plug-In . SVG Version: 6.00 Build 0)  -->
<!DOCTYPE svg PUBLIC "-//W3C//DTD SVG 1.1//EN" "http://www.w3.org/Graphics/SVG/1.1/DTD/svg11.dtd">
<svg version="1.1" id="Layer_1" xmlns="http://www.w3.org/2000/svg" xmlns:xlink="http://www.w3.org/1999/xlink" x="0px" y="0px"
	 width="10.188px" height="10.375px" viewBox="0 0 10.188 10.375" enable-background="new 0 0 10.188 10.375" xml:space="preserve">
<path fill="#F44336" d="M5.094,0.125c-2.745,0-4.969,2.224-4.969,4.969s2.224,4.969,4.969,4.969s4.969-2.224,4.969-4.969
	S7.838,0.125,5.094,0.125z M5.168,8.82c-2.06,0-3.727-1.667-3.727-3.727s1.667-3.727,3.727-3.727c1.006,0,1.848,0.367,2.496,0.974
	L6.653,3.316C6.375,3.05,5.892,2.742,5.168,2.742c-1.273,0-2.31,1.054-2.31,2.352s1.038,2.352,2.31,2.352
	c1.475,0,2.028-1.06,2.114-1.607H5.168V4.561h3.519c0.031,0.186,0.058,0.373,0.058,0.617C8.747,7.308,7.32,8.82,5.168,8.82
	L5.168,8.82z"/>
</svg>
