<?xml version="1.0" encoding="utf-8"?>
<!-- Generator: Adobe Illustrator 17.0.0, SVG Export Plug-In . SVG Version: 6.00 Build 0)  -->
<!DOCTYPE svg PUBLIC "-//W3C//DTD SVG 1.1//EN" "http://www.w3.org/Graphics/SVG/1.1/DTD/svg11.dtd">
<svg version="1.1" id="Isolation_Mode" xmlns="http://www.w3.org/2000/svg" xmlns:xlink="http://www.w3.org/1999/xlink" x="0px"
	 y="0px" width="82.167px" height="59.833px" viewBox="0 0 82.167 59.833" enable-background="new 0 0 82.167 59.833"
	 xml:space="preserve">
<g>
	<g transform="translate(1040 0)">
		<g id="icon-user_1_">
			<path fill="#72CDF1" d="M-991.141,44.152c-7.888-2.874-10.41-5.299-10.41-10.493c0-3.117,2.41-2.099,3.466-7.808
				c0.438-2.368,2.566-0.038,2.976-5.443c0-2.154-1.162-2.691-1.162-2.691s0.592-3.19,0.822-5.642
				c0.282-3.059-1.766-10.957-12.717-10.957c-10.947,0-13.002,7.898-12.714,10.957c0.23,2.451,0.822,5.642,0.822,5.642
				s-1.165,0.534-1.165,2.691c0.406,5.405,2.534,3.075,2.973,5.443c1.059,5.709,3.469,4.691,3.469,7.808
				c0,5.194-2.522,7.619-10.41,10.493c-7.917,2.88-13.056,5.821-13.056,7.827c0,2.003,0,6.736,0,6.736h60.16c0,0,0-4.733,0-6.736
				c0-2.003-5.142-4.944-13.056-7.827H-991.141z"/>
		</g>
	</g>
	<path fill="#72CDF1" d="M80.682,58.715c0,0-0.117-11.366-0.813-12.543c-1.036-1.756-3.439-2.959-7.906-4.827
		c-4.451-1.861-5.877-3.434-5.877-6.793c0-2.02,1.36-1.36,1.957-5.055c0.246-1.534,1.446-0.027,1.678-3.524
		c0-1.396-0.655-1.744-0.655-1.744s0.33-2.065,0.462-3.652c0.162-1.981-1-7.093-7.179-7.093s-7.336,5.115-7.176,7.093
		c0.129,1.588,0.46,3.652,0.46,3.652s-0.655,0.348-0.655,1.744c0.231,3.499,1.431,1.993,1.681,3.524
		c0.595,3.695,1.954,3.034,1.954,5.055c0,2.284-1.66,4.742-3.482,6.025c9.725,4.868,12.03,4.862,12.03,9.214v8.924L80.682,58.715
		L80.682,58.715z"/>
</g>
</svg>
