<?xml version="1.0" encoding="utf-8"?>
<!-- Generator: Adobe Illustrator 17.0.0, SVG Export Plug-In . SVG Version: 6.00 Build 0)  -->
<!DOCTYPE svg PUBLIC "-//W3C//DTD SVG 1.1//EN" "http://www.w3.org/Graphics/SVG/1.1/DTD/svg11.dtd">
<svg version="1.1" id="Layer_1" xmlns="http://www.w3.org/2000/svg" xmlns:xlink="http://www.w3.org/1999/xlink" x="0px" y="0px"
	 width="61.451px" height="63.5px" viewBox="0 0 61.451 63.5" enable-background="new 0 0 61.451 63.5" xml:space="preserve">
<g transform="translate(1200 240)">
	<g id="icon-calendar">
		<path fill="#72CDF1" d="M-1146.875-230.65h-2.88v6.4h-10.24v-6.4h-18.56v6.4h-10.24v-6.4h-2.88c-3.52,0-6.4,2.88-6.4,6.4v38.4
			c0,3.52,2.88,6.4,6.4,6.4h44.8c3.52,0,6.4-2.88,6.4-6.4v-38.4C-1140.474-227.77-1143.354-230.65-1146.875-230.65z
			 M-1146.875-185.85h-44.8v-25.6h44.8V-185.85z M-1181.435-237.05h-4.48v10.88h4.48V-237.05z M-1152.635-237.05h-4.48v10.88h4.48
			V-237.05z"/>
	</g>
</g>
</svg>
