<?xml version="1.0" encoding="utf-8"?>
<!-- Generator: Adobe Illustrator 17.0.0, SVG Export Plug-In . SVG Version: 6.00 Build 0)  -->
<!DOCTYPE svg PUBLIC "-//W3C//DTD SVG 1.1//EN" "http://www.w3.org/Graphics/SVG/1.1/DTD/svg11.dtd">
<svg version="1.1" id="Layer_1" xmlns="http://www.w3.org/2000/svg" xmlns:xlink="http://www.w3.org/1999/xlink" x="0px" y="0px"
	 width="217.212px" height="211.399px" viewBox="0 0 217.212 211.399" enable-background="new 0 0 217.212 211.399"
	 xml:space="preserve">
<g>
	<defs>
		<rect id="SVGID_1_" x="-279.788" y="-123.601" width="800" height="400"/>
	</defs>
	<defs>
		<rect id="SVGID_2_" x="-279.788" y="-123.601" width="800" height="400"/>
	</defs>
	<clipPath id="SVGID_3_">
		<use xlink:href="#SVGID_1_"  overflow="visible"/>
	</clipPath>
	<clipPath id="SVGID_4_" clip-path="url(#SVGID_3_)">
		<use xlink:href="#SVGID_2_"  overflow="visible"/>
	</clipPath>
</g>
<g>
	<path fill="#FFFFFF" d="M47.103,142.066c-12.408,0-22.504-10.096-22.504-22.504c0-6.001,2.349-11.652,6.607-15.902
		c4.248-4.245,9.897-6.585,15.917-6.597l0.055,0.005c0.24,0.017,0.482,0.033,0.739,0.038l4.697,0.157l2.354,0.078l1.756,0.055
		l1.765,0.062l-0.482-1.699l-0.48-1.699l-0.644-2.254l-1.283-4.526c-0.411-1.442-0.618-2.886-0.618-4.295
		c0-8.659,7.041-15.703,15.703-15.703c3.029,0,5.979,0.879,8.531,2.54l3.086,1.996l1.537,1.003l1.159,0.746l1.15,0.746l0.675-1.2
		l0.668-1.202l0.896-1.604l1.791-3.214c5.892-10.605,17.078-17.19,29.18-17.19c18.411,0,33.389,14.978,33.389,33.385
		c0,1.501-0.145,3.107-0.437,5.053l-0.535,3.559l-0.268,1.779l-0.2,1.337l-0.204,1.34l1.347,0.135l1.34,0.14l1.796,0.176
		l3.582,0.366c10.795,1.107,19.098,9.65,20.079,20.276h11.161c-0.936-15.209-11.859-27.781-26.647-30.84
		c0.095-1.152,0.145-2.245,0.145-3.321c0-24.564-19.979-44.545-44.548-44.545c-14.995,0-28.935,7.578-37.152,19.991
		c-3.585-1.715-7.512-2.608-11.519-2.608c-14.812,0-26.861,12.049-26.861,26.861c0,1.017,0.062,2.036,0.181,3.057
		c-17.114,1.568-30.56,16.005-30.56,33.52c0,18.561,15.102,33.663,33.66,33.663h106.654v-11.158H47.103z"/>
	<path fill="#73CEF4" d="M190.436,166.532c0,2.625-2.126,4.751-4.751,4.751h-1.651c-2.625,0-4.751-2.126-4.751-4.751v-37.772
		c0-2.625,2.126-4.751,4.751-4.751h1.651c2.625,0,4.751,2.126,4.751,4.751V166.532z"/>
	<path fill="#73CEF4" d="M165.972,153.222c-2.625,0-4.751-2.126-4.751-4.751v-1.651c0-2.625,2.126-4.751,4.751-4.751h37.772
		c2.625,0,4.751,2.126,4.751,4.751v1.651c0,2.625-2.126,4.751-4.751,4.751H165.972z"/>
</g>
</svg>
