<?xml version="1.0" encoding="utf-8"?>
<!-- Generator: Adobe Illustrator 17.0.0, SVG Export Plug-In . SVG Version: 6.00 Build 0)  -->
<!DOCTYPE svg PUBLIC "-//W3C//DTD SVG 1.1//EN" "http://www.w3.org/Graphics/SVG/1.1/DTD/svg11.dtd">
<svg version="1.1" id="Layer_1" xmlns="http://www.w3.org/2000/svg" xmlns:xlink="http://www.w3.org/1999/xlink" x="0px" y="0px"
	 width="384px" height="448px" viewBox="0 0 384 448" enable-background="new 0 0 384 448" xml:space="preserve">
<g id="icomoon-ignore">
</g>
<path d="M375.5,239.125c0,24.578-4.805,48.053-14.416,70.426s-22.53,41.673-38.758,57.9s-35.528,29.147-57.9,38.758
	c-22.372,9.611-45.848,14.416-70.426,14.416s-48.053-4.805-70.426-14.416s-41.673-22.53-57.9-38.758s-29.147-35.528-38.758-57.9
	S12.5,263.703,12.5,239.125c0-28.674,6.341-55.695,19.024-81.061s30.526-46.635,53.528-63.809
	c6.775-5.042,14.298-7.011,22.569-5.908c8.271,1.103,14.849,5.042,19.733,11.816c5.042,6.617,6.972,14.062,5.79,22.333
	s-5.081,14.928-11.698,19.97c-15.44,11.659-27.375,25.917-35.804,42.775S73,220.061,73,239.125c0,16.385,3.19,32.022,9.571,46.911
	s15.007,27.769,25.878,38.64s23.751,19.497,38.64,25.878s30.526,9.571,46.911,9.571s32.022-3.19,46.911-9.571
	s27.769-15.007,38.64-25.878s19.497-23.751,25.878-38.64S315,255.51,315,239.125c0-19.064-4.215-37.025-12.644-53.883
	s-20.364-31.117-35.804-42.775c-6.617-5.042-10.517-11.698-11.698-19.97s0.748-15.716,5.79-22.333
	c4.884-6.775,11.501-10.714,19.852-11.816c8.35-1.103,15.834,0.867,22.451,5.908c23.003,17.173,40.845,38.443,53.528,63.809
	S375.5,210.451,375.5,239.125z M224.25,57.625v151.25c0,8.193-2.993,15.283-8.98,21.27s-13.077,8.98-21.27,8.98
	s-15.283-2.993-21.27-8.98s-8.98-13.077-8.98-21.27V57.625c0-8.193,2.993-15.283,8.98-21.27s13.077-8.98,21.27-8.98
	s15.283,2.993,21.27,8.98S224.25,49.432,224.25,57.625z"/>
</svg>
