<?xml version="1.0" encoding="utf-8"?>
<!-- Generator: Adobe Illustrator 17.0.0, SVG Export Plug-In . SVG Version: 6.00 Build 0)  -->
<!DOCTYPE svg PUBLIC "-//W3C//DTD SVG 1.1//EN" "http://www.w3.org/Graphics/SVG/1.1/DTD/svg11.dtd">
<svg version="1.1" id="Layer_1" xmlns="http://www.w3.org/2000/svg" xmlns:xlink="http://www.w3.org/1999/xlink" x="0px" y="0px"
	 width="11px" height="14px" viewBox="0 0 11 14" enable-background="new 0 0 11 14" xml:space="preserve">
<path fill="#666666" d="M11,5.75v1.5c0,0.208-0.073,0.385-0.219,0.531S10.458,8,10.25,8H7v3.25c0,0.208-0.073,0.385-0.219,0.531
	S6.458,12,6.25,12h-1.5c-0.208,0-0.385-0.073-0.531-0.219S4,11.458,4,11.25V8H0.75C0.542,8,0.365,7.927,0.219,7.781S0,7.458,0,7.25
	v-1.5c0-0.208,0.073-0.385,0.219-0.531S0.542,5,0.75,5H4V1.75c0-0.208,0.073-0.385,0.219-0.531S4.542,1,4.75,1h1.5
	c0.208,0,0.385,0.073,0.531,0.219S7,1.542,7,1.75V5h3.25c0.208,0,0.385,0.073,0.531,0.219S11,5.542,11,5.75z"/>
</svg>
