<?xml version="1.0" encoding="utf-8"?>
<!-- Generator: Adobe Illustrator 17.0.0, SVG Export Plug-In . SVG Version: 6.00 Build 0)  -->
<!DOCTYPE svg PUBLIC "-//W3C//DTD SVG 1.1//EN" "http://www.w3.org/Graphics/SVG/1.1/DTD/svg11.dtd">
<svg version="1.1" id="Layer_1" xmlns="http://www.w3.org/2000/svg" xmlns:xlink="http://www.w3.org/1999/xlink" x="0px" y="0px"
	 width="198px" height="109px" viewBox="0 0 198 109" enable-background="new 0 0 198 109" xml:space="preserve">
<g>
	<g>
		<path fill="#76DCFF" d="M24.226,72.179c0-1.645,1.028-2.742,2.468-2.742c1.268,0,2.091,0.685,2.262,1.851
			c1.2-1.302,2.776-2.056,4.593-2.056c2.056,0,3.805,0.857,5.107,2.502c1.371-1.577,3.53-2.502,5.21-2.502
			c4.011,0,6.753,2.331,6.753,6.65v9.461c0,1.645-1.029,2.742-2.468,2.742c-1.44,0-2.468-1.097-2.468-2.742v-8.604
			c0-1.988-1.097-3.394-2.879-3.394c-1.817,0-2.913,1.405-2.913,3.394v8.604c0,1.645-1.028,2.742-2.468,2.742
			s-2.468-1.097-2.468-2.742v-8.604c0-1.988-1.097-3.394-2.879-3.394c-2.022,0-2.913,1.405-2.913,3.394v8.604
			c0,1.645-1.028,2.742-2.468,2.742c-1.44,0-2.468-1.097-2.468-2.742V72.179z"/>
		<path fill="#76DCFF" d="M57.406,80.405c0.343,2.434,2.365,3.565,4.662,3.565c2.537,0,4.285-1.988,5.587-1.988
			c1.063,0,2.022,1.062,2.022,2.125c0,2.125-4.387,4.182-8.055,4.182c-5.553,0-9.255-4.044-9.255-9.495
			c0-5.005,3.633-9.563,8.843-9.563c5.347,0,8.878,4.867,8.878,8.981c0,1.473-0.651,2.194-2.159,2.194H57.406z M65.153,77.115
			c-0.274-2.16-1.645-3.771-3.942-3.771c-2.194,0-3.667,1.68-3.907,3.771H65.153z"/>
		<path fill="#76DCFF" d="M88.702,85.341c0,1.645-1.028,2.742-2.468,2.742c-1.371,0-2.159-0.754-2.468-2.057
			c-0.925,1.509-2.845,2.262-4.524,2.262c-4.97,0-8.124-4.627-8.124-9.289c0-4.799,2.639-9.769,7.952-9.769
			c1.714,0,3.394,0.582,4.696,1.714v-6.718c0-1.645,1.029-2.742,2.468-2.742c1.44,0,2.468,1.097,2.468,2.742V85.341z M79.893,73.756
			c-2.571,0-3.839,2.708-3.839,5.039c0,2.296,1.268,4.97,3.839,4.97c2.708,0,3.873-2.743,3.873-5.142
			C83.766,76.223,82.532,73.756,79.893,73.756z"/>
		<path fill="#76DCFF" d="M96.688,64.741c0,1.542-1.234,2.845-2.776,2.845c-1.474,0-2.776-1.337-2.776-2.845
			c0-1.405,1.302-2.708,2.776-2.708C95.386,62.033,96.688,63.301,96.688,64.741z M91.444,72.179c0-1.645,1.028-2.742,2.468-2.742
			c1.439,0,2.468,1.097,2.468,2.742v13.162c0,1.645-1.029,2.742-2.468,2.742c-1.439,0-2.468-1.097-2.468-2.742V72.179z"/>
		<path fill="#FFFFFF" d="M111.393,74.715c-1.234,0-2.331-0.96-3.908-0.96c-2.811,0-4.148,2.502-4.148,5.039
			c0,2.434,1.474,4.97,4.148,4.97c1.234,0,3.085-1.029,3.667-1.029c1.165,0,2.126,0.994,2.126,2.16c0,2.536-4.251,3.393-6.033,3.393
			c-5.313,0-8.844-4.353-8.844-9.495c0-5.005,3.633-9.563,8.844-9.563c1.954,0,6.033,0.72,6.033,3.119
			C113.278,73.378,112.558,74.715,111.393,74.715z"/>
		<path fill="#FFFFFF" d="M114.924,64.226c0-1.645,1.028-2.742,2.468-2.742c1.439,0,2.468,1.097,2.468,2.742v21.115
			c0,1.645-1.028,2.742-2.468,2.742c-1.44,0-2.468-1.097-2.468-2.742V64.226z"/>
		<path fill="#FFFFFF" d="M139.57,78.794c0,5.142-3.531,9.495-8.844,9.495c-5.313,0-8.844-4.353-8.844-9.495
			c0-5.005,3.633-9.563,8.844-9.563C135.936,69.231,139.57,73.79,139.57,78.794z M126.819,78.794c0,2.365,1.234,4.97,3.908,4.97
			c2.674,0,3.907-2.605,3.907-4.97s-1.2-5.039-3.907-5.039C128.018,73.756,126.819,76.429,126.819,78.794z"/>
		<path fill="#FFFFFF" d="M141.661,72.179c0-1.645,1.028-2.742,2.468-2.742c1.44,0,2.468,1.097,2.468,2.742v8.809
			c0,2.056,1.543,3.188,3.188,3.188s3.187-1.131,3.187-3.188v-8.809c0-1.645,1.028-2.742,2.468-2.742
			c1.439,0,2.468,1.097,2.468,2.742v8.912c0,4.387-2.913,7.198-8.123,7.198c-5.21,0-8.124-2.811-8.124-7.198V72.179z"/>
		<path fill="#FFFFFF" d="M177.584,85.341c0,1.645-1.028,2.742-2.468,2.742c-1.371,0-2.16-0.754-2.468-2.057
			c-0.926,1.509-2.845,2.262-4.525,2.262c-4.97,0-8.123-4.627-8.123-9.289c0-4.799,2.639-9.769,7.952-9.769
			c1.714,0,3.394,0.582,4.696,1.714v-6.718c0-1.645,1.028-2.742,2.468-2.742c1.439,0,2.468,1.097,2.468,2.742V85.341z
			 M168.775,73.756c-2.571,0-3.839,2.708-3.839,5.039c0,2.296,1.268,4.97,3.839,4.97c2.708,0,3.873-2.743,3.873-5.142
			C172.648,76.223,171.414,73.756,168.775,73.756z"/>
	</g>
	<g>
		<path fill="#FFFFFF" d="M74.643,48.347c-4.361,0-7.91-3.549-7.91-7.91c0-2.109,0.826-4.096,2.322-5.589
			c1.493-1.492,3.479-2.315,5.594-2.319l0.019,0.002c0.084,0.006,0.17,0.012,0.26,0.013l1.651,0.055l0.827,0.028l0.617,0.019
			l0.62,0.022l-0.169-0.597l-0.169-0.597l-0.226-0.792l-0.451-1.591c-0.144-0.507-0.217-1.015-0.217-1.51
			c0-3.043,2.475-5.519,5.519-5.519c1.065,0,2.102,0.309,2.998,0.893l1.085,0.701l0.54,0.352l0.407,0.262l0.404,0.262l0.237-0.422
			l0.235-0.422l0.315-0.564l0.63-1.13c2.071-3.727,6.003-6.042,10.256-6.042c6.471,0,11.736,5.265,11.736,11.734
			c0,0.528-0.051,1.092-0.154,1.776l-0.188,1.251l-0.094,0.625l-0.07,0.47l-0.072,0.471l0.473,0.048l0.471,0.049l0.631,0.062
			l1.259,0.129c3.794,0.389,6.712,3.392,7.057,7.127h3.923c-0.329-5.346-4.168-9.764-9.366-10.84
			c0.033-0.405,0.051-0.789,0.051-1.167c0-8.634-7.022-15.657-15.658-15.657c-5.27,0-10.17,2.664-13.058,7.026
			c-1.26-0.603-2.64-0.917-4.049-0.917c-5.206,0-9.441,4.235-9.441,9.441c0,0.357,0.022,0.716,0.063,1.075
			c-6.015,0.551-10.741,5.625-10.741,11.782c0,6.524,5.308,11.832,11.831,11.832h37.486v-3.922H74.643z"/>
		<path fill="#76DCFF" d="M125.021,56.946c0,0.923-0.747,1.67-1.67,1.67h-0.58c-0.923,0-1.67-0.747-1.67-1.67V43.67
			c0-0.923,0.747-1.67,1.67-1.67h0.58c0.923,0,1.67,0.747,1.67,1.67V56.946z"/>
		<path fill="#76DCFF" d="M116.422,52.268c-0.923,0-1.67-0.747-1.67-1.67v-0.58c0-0.923,0.747-1.67,1.67-1.67h13.276
			c0.923,0,1.67,0.747,1.67,1.67v0.58c0,0.923-0.747,1.67-1.67,1.67H116.422z"/>
	</g>
</g>
</svg>
