<?xml version="1.0" encoding="utf-8"?>
<!-- Generator: Adobe Illustrator 19.0.0, SVG Export Plug-In . SVG Version: 6.00 Build 0)  -->
<svg version="1.1" xmlns="http://www.w3.org/2000/svg" xmlns:xlink="http://www.w3.org/1999/xlink" x="0px" y="0px"
	 viewBox="-188 237 135 40" style="enable-background:new -188 237 135 40;" xml:space="preserve">
<style type="text/css">
	.st0{fill:#FFFFFF;}
	.st1{display:none;}
	.st2{display:inline;fill:#FFFFFF;fill-opacity:0;}
	.st3{display:inline;}
	.st4{fill:#FFFFFF;stroke:#FFFFFF;stroke-width:0.2;stroke-miterlimit:10;}
	.st5{fill:url(#SVGID_1_);}
	.st6{fill:url(#SVGID_2_);}
	.st7{fill:url(#SVGID_3_);}
	.st8{fill:url(#SVGID_4_);}
	.st9{opacity:0.2;enable-background:new    ;}
	.st10{opacity:0.12;enable-background:new    ;}
	.st11{opacity:0.25;fill:#FFFFFF;enable-background:new    ;}
</style>
<g id="Layer_1">
	<g>
		<path class="st0" d="M-54,272.3c0,2.1-1.7,3.8-3.8,3.8h-125.5c-2.1,0-3.8-1.7-3.8-3.8v-30.5c0-2.1,1.7-3.8,3.8-3.8h125.5
			c2.1,0,3.8,1.7,3.8,3.8L-54,272.3L-54,272.3z"/>
		<path class="st0" d="M-57.8,277h-125.5c-2.6,0-4.7-2.1-4.7-4.7v-30.5c0-2.6,2.1-4.7,4.7-4.7h125.5c2.6,0,4.7,2.1,4.7,4.7v30.5
			C-53.1,274.9-55.2,277-57.8,277L-57.8,277z"/>
		<path d="M-54,272.3c0,2.1-1.7,3.8-3.8,3.8h-125.5c-2.1,0-3.8-1.7-3.8-3.8v-30.5c0-2.1,1.7-3.8,3.8-3.8h125.5
			c2.1,0,3.8,1.7,3.8,3.8L-54,272.3L-54,272.3z"/>
		<path class="st0" d="M-157.9,256.8c0-3.2,2.6-4.8,2.8-4.9c-1.5-2.2-3.9-2.5-4.7-2.5c-2-0.2-3.9,1.2-4.9,1.2c-1,0-2.6-1.2-4.2-1.1
			c-2.1,0-4.1,1.3-5.2,3.2c-2.3,3.9-0.6,9.7,1.6,12.9c1.1,1.6,2.4,3.3,4,3.2c1.6-0.1,2.2-1,4.2-1c1.9,0,2.5,1,4.2,1
			c1.7,0,2.8-1.6,3.9-3.1c1.3-1.8,1.8-3.5,1.8-3.6C-154.5,261.9-157.8,260.6-157.9,256.8z"/>
		<path class="st0" d="M-161.1,247.3c0.9-1.1,1.5-2.6,1.3-4.1c-1.3,0.1-2.8,0.9-3.8,1.9c-0.8,0.9-1.5,2.5-1.3,3.9
			C-163.4,249.2-162,248.4-161.1,247.3z"/>
		<g>
			<path class="st0" d="M-134.3,268.5h-2.3l-1.2-3.9h-4.3l-1.2,3.9h-2.2l4.3-13.3h2.6L-134.3,268.5z M-138.2,263l-1.1-3.5
				c-0.1-0.4-0.3-1.2-0.7-2.5h0c-0.1,0.6-0.3,1.4-0.6,2.5l-1.1,3.5H-138.2z"/>
			<path class="st0" d="M-123.3,263.6c0,1.6-0.4,2.9-1.3,3.9c-0.8,0.8-1.8,1.3-3,1.3c-1.3,0-2.2-0.5-2.7-1.4v5h-2.1v-10.3
				c0-1,0-2.1-0.1-3.2h1.9l0.1,1.5h0c0.7-1.1,1.8-1.7,3.2-1.7c1.1,0,2.1,0.4,2.8,1.3C-123.7,260.9-123.3,262.1-123.3,263.6z
				 M-125.5,263.7c0-0.9-0.2-1.7-0.6-2.3c-0.5-0.6-1.1-0.9-1.9-0.9c-0.5,0-1,0.2-1.4,0.5c-0.4,0.4-0.7,0.8-0.8,1.4
				c-0.1,0.3-0.1,0.5-0.1,0.6v1.6c0,0.7,0.2,1.3,0.6,1.8c0.4,0.5,1,0.7,1.7,0.7c0.8,0,1.4-0.3,1.9-0.9
				C-125.7,265.5-125.5,264.7-125.5,263.7z"/>
			<path class="st0" d="M-112.3,263.6c0,1.6-0.4,2.9-1.3,3.9c-0.8,0.8-1.8,1.3-3,1.3c-1.3,0-2.2-0.5-2.7-1.4v5h-2.1v-10.3
				c0-1,0-2.1-0.1-3.2h1.9l0.1,1.5h0c0.7-1.1,1.8-1.7,3.2-1.7c1.1,0,2.1,0.4,2.8,1.3C-112.7,260.9-112.3,262.1-112.3,263.6z
				 M-114.5,263.7c0-0.9-0.2-1.7-0.6-2.3c-0.5-0.6-1.1-0.9-1.9-0.9c-0.5,0-1,0.2-1.4,0.5c-0.4,0.4-0.7,0.8-0.8,1.4
				c-0.1,0.3-0.1,0.5-0.1,0.6v1.6c0,0.7,0.2,1.3,0.6,1.8c0.4,0.5,1,0.7,1.7,0.7c0.8,0,1.4-0.3,1.9-0.9
				C-114.7,265.5-114.5,264.7-114.5,263.7z"/>
			<path class="st0" d="M-100,264.8c0,1.1-0.4,2.1-1.2,2.8c-0.9,0.8-2.1,1.2-3.6,1.2c-1.4,0-2.6-0.3-3.4-0.8l0.5-1.8
				c0.9,0.6,2,0.8,3.1,0.8c0.8,0,1.4-0.2,1.9-0.5c0.4-0.4,0.7-0.8,0.7-1.4c0-0.5-0.2-1-0.6-1.4c-0.4-0.4-1-0.7-1.8-1
				c-2.3-0.9-3.5-2.1-3.5-3.8c0-1.1,0.4-2,1.2-2.7c0.8-0.7,1.9-1,3.3-1c1.2,0,2.2,0.2,3,0.6l-0.5,1.7c-0.8-0.4-1.6-0.6-2.6-0.6
				c-0.8,0-1.3,0.2-1.8,0.6c-0.4,0.3-0.5,0.7-0.5,1.2c0,0.5,0.2,1,0.6,1.3c0.4,0.3,1,0.7,1.9,1c1.1,0.5,2,1,2.5,1.6
				C-100.2,263.1-100,263.9-100,264.8z"/>
			<path class="st0" d="M-92.9,260.5h-2.3v4.7c0,1.2,0.4,1.8,1.2,1.8c0.4,0,0.7,0,0.9-0.1l0.1,1.6c-0.4,0.2-1,0.2-1.7,0.2
				c-0.8,0-1.5-0.3-2-0.8c-0.5-0.5-0.7-1.4-0.7-2.6v-4.8h-1.4v-1.6h1.4v-1.8l2.1-0.6v2.4h2.3C-92.9,258.9-92.9,260.5-92.9,260.5z"/>
			<path class="st0" d="M-82.3,263.6c0,1.5-0.4,2.7-1.3,3.6c-0.9,1-2.1,1.5-3.5,1.5c-1.4,0-2.5-0.5-3.4-1.4
				c-0.8-0.9-1.3-2.1-1.3-3.5c0-1.5,0.4-2.7,1.3-3.7c0.9-0.9,2-1.4,3.5-1.4c1.4,0,2.5,0.5,3.4,1.4C-82.7,261-82.3,262.2-82.3,263.6z
				 M-84.5,263.7c0-0.9-0.2-1.6-0.6-2.3c-0.4-0.8-1.1-1.1-1.9-1.1c-0.9,0-1.5,0.4-2,1.1c-0.4,0.6-0.6,1.4-0.6,2.3
				c0,0.9,0.2,1.6,0.6,2.3c0.5,0.8,1.1,1.1,1.9,1.1c0.8,0,1.5-0.4,1.9-1.2C-84.7,265.3-84.5,264.6-84.5,263.7z"/>
			<path class="st0" d="M-75.4,260.8c-0.2,0-0.4-0.1-0.7-0.1c-0.8,0-1.3,0.3-1.7,0.9c-0.4,0.5-0.5,1.1-0.5,1.9v5h-2.1v-6.6
				c0-1.1,0-2.1-0.1-3h1.9l0.1,1.8h0.1c0.2-0.6,0.6-1.1,1.1-1.5c0.5-0.3,1-0.5,1.5-0.5c0.2,0,0.4,0,0.5,0L-75.4,260.8L-75.4,260.8z"
				/>
			<path class="st0" d="M-65.8,263.3c0,0.4,0,0.7-0.1,1h-6.4c0,0.9,0.3,1.7,0.9,2.2c0.5,0.4,1.2,0.7,2.1,0.7c0.9,0,1.8-0.1,2.6-0.5
				l0.3,1.5c-0.9,0.4-2,0.6-3.2,0.6c-1.5,0-2.7-0.4-3.5-1.3c-0.8-0.9-1.3-2.1-1.3-3.5c0-1.4,0.4-2.7,1.2-3.6c0.8-1,1.9-1.5,3.4-1.5
				c1.4,0,2.4,0.5,3.1,1.5C-66.1,261-65.8,262.1-65.8,263.3z M-67.9,262.7c0-0.6-0.1-1.2-0.4-1.6c-0.4-0.6-0.9-0.9-1.7-0.9
				c-0.7,0-1.3,0.3-1.7,0.9c-0.4,0.5-0.6,1-0.6,1.7L-67.9,262.7L-67.9,262.7z"/>
		</g>
		<g>
			<path class="st0" d="M-139.3,250.4h-1.1l-0.6-1.9h-2.1l-0.6,1.9h-1.1l2.1-6.5h1.3L-139.3,250.4z M-141.2,247.7l-0.6-1.7
				c-0.1-0.2-0.2-0.6-0.3-1.2h0c-0.1,0.3-0.2,0.7-0.3,1.2l-0.5,1.7H-141.2z"/>
			<path class="st0" d="M-134,245.7l-1.8,4.7h-1l-1.7-4.7h1.1l0.8,2.5c0.1,0.4,0.3,0.8,0.3,1.2h0c0.1-0.3,0.2-0.7,0.3-1.2l0.8-2.5
				C-135.1,245.7-134,245.7-134,245.7z"/>
			<path class="st0" d="M-130.2,250.4l-0.1-0.5h0c-0.3,0.4-0.8,0.6-1.4,0.6c-0.8,0-1.4-0.6-1.4-1.4c0-1.2,1-1.8,2.8-1.8v-0.1
				c0-0.6-0.3-0.9-1-0.9c-0.5,0-0.9,0.1-1.2,0.3l-0.2-0.7c0.4-0.3,1-0.4,1.6-0.4c1.2,0,1.9,0.7,1.9,2v1.7c0,0.5,0,0.8,0.1,1.1
				L-130.2,250.4L-130.2,250.4z M-130.3,248.1c-1.2,0-1.7,0.3-1.7,1c0,0.5,0.3,0.7,0.7,0.7c0.5,0,1-0.4,1-1
				C-130.3,248.8-130.3,248.1-130.3,248.1z"/>
			<path class="st0" d="M-127,244.9c-0.3,0-0.6-0.3-0.6-0.6c0-0.4,0.3-0.6,0.6-0.6c0.4,0,0.7,0.3,0.6,0.6
				C-126.3,244.7-126.6,244.9-127,244.9z M-126.4,250.4h-1v-4.7h1V250.4z"/>
			<path class="st0" d="M-123.5,250.4h-1v-6.9h1V250.4z"/>
			<path class="st0" d="M-119.1,250.4l-0.1-0.5h0c-0.3,0.4-0.8,0.6-1.4,0.6c-0.8,0-1.4-0.6-1.4-1.4c0-1.2,1-1.8,2.8-1.8v-0.1
				c0-0.6-0.3-0.9-1-0.9c-0.5,0-0.9,0.1-1.2,0.3l-0.2-0.7c0.4-0.3,1-0.4,1.6-0.4c1.2,0,1.9,0.6,1.9,2v1.7c0,0.5,0,0.8,0.1,1.1
				H-119.1z M-119.2,248.1c-1.2,0-1.7,0.3-1.7,1c0,0.5,0.3,0.7,0.7,0.7c0.5,0,1-0.4,1-1V248.1z"/>
			<path class="st0" d="M-113.9,250.5c-0.7,0-1.2-0.3-1.5-0.8h0l-0.1,0.7h-0.9c0-0.4,0-0.8,0-1.3v-5.6h1v2.9h0
				c0.3-0.5,0.8-0.8,1.5-0.8c1.1,0,1.9,1,1.9,2.4C-111.9,249.5-112.7,250.5-113.9,250.5z M-114.2,246.4c-0.6,0-1.2,0.5-1.2,1.3v0.8
				c0,0.7,0.5,1.2,1.1,1.2c0.8,0,1.3-0.6,1.3-1.7C-112.9,247.1-113.4,246.4-114.2,246.4z"/>
			<path class="st0" d="M-109.3,250.4h-1v-6.9h1V250.4z"/>
			<path class="st0" d="M-103.6,248.3h-3.1c0,0.9,0.6,1.4,1.5,1.4c0.5,0,0.9-0.1,1.3-0.2l0.2,0.7c-0.4,0.2-1,0.3-1.6,0.3
				c-1.5,0-2.3-0.9-2.3-2.4c0-1.4,0.9-2.5,2.2-2.5c1.2,0,2,0.9,2,2.2C-103.5,248-103.5,248.2-103.6,248.3z M-104.5,247.6
				c0-0.7-0.4-1.2-1-1.2c-0.6,0-1.1,0.5-1.1,1.2H-104.5z"/>
			<path class="st0" d="M-97.2,250.5c-1.4,0-2.3-1-2.3-2.4c0-1.5,0.9-2.5,2.3-2.5c1.4,0,2.3,1,2.3,2.4
				C-94.9,249.5-95.8,250.5-97.2,250.5z M-97.2,246.4c-0.8,0-1.2,0.7-1.2,1.7c0,1,0.5,1.7,1.2,1.7s1.2-0.8,1.2-1.7
				C-95.9,247.1-96.4,246.4-97.2,246.4z"/>
			<path class="st0" d="M-89.2,250.4h-1v-2.7c0-0.8-0.3-1.3-1-1.3c-0.6,0-1,0.5-1,1.2v2.8h-1v-3.4c0-0.4,0-0.9,0-1.3h0.9l0,0.7h0
				c0.3-0.5,0.9-0.8,1.5-0.8c1,0,1.6,0.8,1.6,2L-89.2,250.4L-89.2,250.4z"/>
			<path class="st0" d="M-82.4,246.5h-1.2v2.3c0,0.6,0.2,0.9,0.6,0.9c0.2,0,0.3,0,0.5,0l0,0.8c-0.2,0.1-0.5,0.1-0.8,0.1
				c-0.8,0-1.3-0.5-1.3-1.7v-2.4h-0.7v-0.8h0.7v-0.9l1-0.3v1.2h1.2V246.5z"/>
			<path class="st0" d="M-76.8,250.4h-1v-2.7c0-0.8-0.3-1.3-1-1.3c-0.5,0-1,0.4-1,1.1v2.8h-1v-6.9h1v2.8h0c0.3-0.5,0.8-0.8,1.4-0.8
				c1,0,1.6,0.8,1.6,2V250.4z"/>
			<path class="st0" d="M-71.5,248.3h-3.1c0,0.9,0.6,1.4,1.5,1.4c0.5,0,0.9-0.1,1.3-0.2l0.2,0.7c-0.4,0.2-1,0.3-1.6,0.3
				c-1.5,0-2.3-0.9-2.3-2.4c0-1.4,0.9-2.5,2.2-2.5c1.2,0,2,0.9,2,2.2C-71.4,248-71.4,248.2-71.5,248.3z M-72.4,247.6
				c0-0.7-0.4-1.2-1-1.2c-0.6,0-1.1,0.5-1.1,1.2H-72.4z"/>
		</g>
	</g>
</g>
<g id="Layer_3" class="st1">
	<rect x="-197.6" y="227.4" class="st2" width="153.8" height="59.5"/>
	<g class="st3">
		<path d="M-58.6,277.1h-124.1c-2.7,0-5-2.2-5-5v-29.8c0-2.7,2.2-5,5-5h124.1c2.7,0,5,2.2,5,5v29.8
			C-53.7,274.8-55.9,277.1-58.6,277.1z"/>
	</g>
	<g class="st3">
		<g>
			<path class="st0" d="M-58.6,238.2c2.3,0,4.2,1.9,4.2,4.2v29.8c0,2.3-1.9,4.2-4.2,4.2h-124.1c-2.3,0-4.2-1.9-4.2-4.2v-29.8
				c0-2.3,1.9-4.2,4.2-4.2H-58.6 M-58.6,237.4h-124.1c-2.7,0-5,2.2-5,5v29.8c0,2.7,2.2,5,5,5h124.1c2.7,0,5-2.2,5-5v-29.8
				C-53.7,239.6-55.9,237.4-58.6,237.4L-58.6,237.4z"/>
		</g>
	</g>
	<g class="st3">
		<path class="st4" d="M-140.6,247.5c0,0.8-0.2,1.5-0.7,2c-0.6,0.6-1.3,0.9-2.2,0.9c-0.9,0-1.6-0.3-2.2-0.9
			c-0.6-0.6-0.9-1.3-0.9-2.2c0-0.9,0.3-1.6,0.9-2.2c0.6-0.6,1.3-0.9,2.2-0.9c0.4,0,0.8,0.1,1.2,0.2c0.4,0.2,0.7,0.4,0.9,0.7
			l-0.5,0.5c-0.4-0.5-0.9-0.7-1.6-0.7c-0.6,0-1.2,0.2-1.6,0.7c-0.5,0.4-0.7,1-0.7,1.7s0.2,1.3,0.7,1.7c0.5,0.4,1,0.7,1.6,0.7
			c0.7,0,1.2-0.2,1.7-0.7c0.3-0.3,0.5-0.7,0.5-1.2h-2.2v-0.7h2.9C-140.6,247.2-140.6,247.4-140.6,247.5z"/>
		<path class="st4" d="M-136,245.1h-2.7v1.9h2.4v0.7h-2.4v1.9h2.7v0.7h-3.5v-6h3.5V245.1z"/>
		<path class="st4" d="M-132.8,250.3h-0.8v-5.2h-1.7v-0.7h4.1v0.7h-1.7V250.3z"/>
		<path class="st4" d="M-128.2,250.3v-6h0.8v6H-128.2z"/>
		<path class="st4" d="M-124,250.3h-0.8v-5.2h-1.7v-0.7h4.1v0.7h-1.7V250.3z"/>
		<path class="st4" d="M-114.6,249.5c-0.6,0.6-1.3,0.9-2.2,0.9c-0.9,0-1.6-0.3-2.2-0.9c-0.6-0.6-0.9-1.3-0.9-2.2s0.3-1.6,0.9-2.2
			c0.6-0.6,1.3-0.9,2.2-0.9c0.9,0,1.6,0.3,2.2,0.9c0.6,0.6,0.9,1.3,0.9,2.2C-113.7,248.2-114,248.9-114.6,249.5z M-118.4,249
			c0.4,0.4,1,0.7,1.6,0.7c0.6,0,1.2-0.2,1.6-0.7c0.4-0.4,0.7-1,0.7-1.7s-0.2-1.3-0.7-1.7c-0.4-0.4-1-0.7-1.6-0.7
			c-0.6,0-1.2,0.2-1.6,0.7c-0.4,0.4-0.7,1-0.7,1.7S-118.8,248.6-118.4,249z"/>
		<path class="st4" d="M-112.7,250.3v-6h0.9l2.9,4.6h0l0-1.1v-3.5h0.8v6h-0.8l-3-4.9h0l0,1.1v3.7H-112.7z"/>
	</g>
	<g class="st3">
		<path class="st0" d="M-120,259c-2.3,0-4.2,1.8-4.2,4.2c0,2.4,1.9,4.2,4.2,4.2c2.3,0,4.2-1.8,4.2-4.2
			C-115.8,260.7-117.7,259-120,259z M-120,265.7c-1.3,0-2.4-1.1-2.4-2.6c0-1.5,1.1-2.6,2.4-2.6c1.3,0,2.4,1,2.4,2.6
			C-117.7,264.7-118.8,265.7-120,265.7z M-129.3,259c-2.3,0-4.2,1.8-4.2,4.2c0,2.4,1.9,4.2,4.2,4.2c2.3,0,4.2-1.8,4.2-4.2
			C-125,260.7-126.9,259-129.3,259z M-129.3,265.7c-1.3,0-2.4-1.1-2.4-2.6c0-1.5,1.1-2.6,2.4-2.6c1.3,0,2.4,1,2.4,2.6
			C-126.9,264.7-128,265.7-129.3,265.7z M-140.3,260.3v1.8h4.3c-0.1,1-0.5,1.7-1,2.3c-0.6,0.6-1.6,1.3-3.3,1.3
			c-2.6,0-4.7-2.1-4.7-4.8c0-2.6,2.1-4.8,4.7-4.8c1.4,0,2.5,0.6,3.2,1.3l1.3-1.3c-1.1-1-2.5-1.8-4.5-1.8c-3.6,0-6.7,2.9-6.7,6.6
			c0,3.6,3,6.6,6.7,6.6c2,0,3.4-0.6,4.6-1.8c1.2-1.2,1.6-2.8,1.6-4.2c0-0.4,0-0.8-0.1-1.1H-140.3z M-95.3,261.6
			c-0.4-0.9-1.4-2.7-3.6-2.7c-2.2,0-4,1.7-4,4.2c0,2.4,1.8,4.2,4.2,4.2c1.9,0,3.1-1.2,3.5-1.9l-1.4-1c-0.5,0.7-1.1,1.2-2.1,1.2
			c-0.9,0-1.6-0.4-2-1.3l5.6-2.3L-95.3,261.6z M-101.1,263.1c0-1.6,1.3-2.5,2.2-2.5c0.7,0,1.4,0.4,1.6,0.9L-101.1,263.1z
			 M-105.7,267.2h1.9v-12.4h-1.9V267.2z M-108.7,259.9L-108.7,259.9c-0.5-0.5-1.3-0.9-2.3-0.9c-2.1,0-4,1.9-4,4.2
			c0,2.4,1.9,4.2,4,4.2c1,0,1.8-0.4,2.2-1h0.1v0.6c0,1.6-0.9,2.5-2.3,2.5c-1.1,0-1.8-0.8-2.1-1.5l-1.6,0.7c0.5,1.1,1.7,2.5,3.7,2.5
			c2.2,0,4-1.3,4-4.4v-7.6h-1.8V259.9z M-110.8,265.7c-1.3,0-2.4-1.1-2.4-2.5c0-1.5,1.1-2.6,2.4-2.6c1.3,0,2.3,1.1,2.3,2.6
			C-108.6,264.7-109.6,265.7-110.8,265.7z M-86.6,254.7h-4.4v12.4h1.9v-4.7h2.6c2.1,0,4.1-1.5,4.1-3.9
			C-82.5,256.2-84.6,254.7-86.6,254.7z M-86.6,260.7h-2.6v-4.3h2.6c1.4,0,2.2,1.1,2.2,2.1C-84.4,259.6-85.2,260.7-86.6,260.7z
			 M-75.1,258.9c-1.3,0-2.7,0.6-3.3,1.9l1.6,0.7c0.4-0.7,1-0.9,1.7-0.9c1,0,1.9,0.6,1.9,1.6v0.1c-0.3-0.2-1.1-0.5-1.9-0.5
			c-1.8,0-3.6,1-3.6,2.8c0,1.7,1.5,2.7,3.1,2.7c1.2,0,1.9-0.6,2.4-1.2h0.1v1h1.8v-4.8C-71.4,260.2-73,258.9-75.1,258.9z
			 M-75.4,265.7c-0.6,0-1.5-0.3-1.5-1.1c0-1,1.1-1.3,2-1.3c0.8,0,1.2,0.2,1.7,0.4C-73.3,264.9-74.3,265.7-75.4,265.7z M-64.8,259.2
			l-2.1,5.4H-67l-2.2-5.4h-2l3.3,7.5l-1.9,4.2h1.9l5.1-11.7H-64.8z M-81.5,267.2h1.9v-12.4h-1.9V267.2z"/>
	</g>
	<g class="st3">
		
			<linearGradient id="SVGID_1_" gradientUnits="userSpaceOnUse" x1="-166.0263" y1="269.9806" x2="-182.6828" y2="253.3241" gradientTransform="matrix(1 0 0 -1 0 516)">
			<stop  offset="0" style="stop-color:#00A0FF"/>
			<stop  offset="6.574450e-03" style="stop-color:#00A1FF"/>
			<stop  offset="0.2601" style="stop-color:#00BEFF"/>
			<stop  offset="0.5122" style="stop-color:#00D2FF"/>
			<stop  offset="0.7604" style="stop-color:#00DFFF"/>
			<stop  offset="1" style="stop-color:#00E3FF"/>
		</linearGradient>
		<path class="st5" d="M-177.3,244.9c-0.3,0.3-0.5,0.8-0.5,1.4v22c0,0.6,0.2,1.1,0.5,1.4l0.1,0.1l12.3-12.3v-0.1v-0.1L-177.3,244.9
			L-177.3,244.9z"/>
		
			<linearGradient id="SVGID_2_" gradientUnits="userSpaceOnUse" x1="-154.0819" y1="258.7736" x2="-178.0973" y2="258.7736" gradientTransform="matrix(1 0 0 -1 0 516)">
			<stop  offset="0" style="stop-color:#FFE000"/>
			<stop  offset="0.4087" style="stop-color:#FFBD00"/>
			<stop  offset="0.7754" style="stop-color:#FFA500"/>
			<stop  offset="1" style="stop-color:#FF9C00"/>
		</linearGradient>
		<path class="st6" d="M-160.8,261.5l-4.1-4.1v-0.1v-0.1l4.1-4.1l0.1,0.1l4.9,2.8c1.4,0.8,1.4,2.1,0,2.9L-160.8,261.5L-160.8,261.5z
			"/>
		
			<linearGradient id="SVGID_3_" gradientUnits="userSpaceOnUse" x1="-163.0217" y1="256.4961" x2="-185.6093" y2="233.9085" gradientTransform="matrix(1 0 0 -1 0 516)">
			<stop  offset="0" style="stop-color:#FF3A44"/>
			<stop  offset="1" style="stop-color:#C31162"/>
		</linearGradient>
		<path class="st7" d="M-160.7,261.4l-4.2-4.2l-12.4,12.4c0.5,0.5,1.2,0.5,2.1,0.1L-160.7,261.4"/>
		
			<linearGradient id="SVGID_4_" gradientUnits="userSpaceOnUse" x1="-180.4199" y1="278.4501" x2="-170.3336" y2="268.3638" gradientTransform="matrix(1 0 0 -1 0 516)">
			<stop  offset="0" style="stop-color:#32A071"/>
			<stop  offset="6.850000e-02" style="stop-color:#2DA771"/>
			<stop  offset="0.4762" style="stop-color:#15CF74"/>
			<stop  offset="0.8009" style="stop-color:#06E775"/>
			<stop  offset="1" style="stop-color:#00F076"/>
		</linearGradient>
		<path class="st8" d="M-160.7,253l-14.5-8.2c-0.9-0.5-1.6-0.4-2.1,0.1l12.4,12.4L-160.7,253z"/>
		<g>
			<path class="st9" d="M-160.8,261.3l-14.4,8.2c-0.8,0.5-1.5,0.4-2,0l0,0l-0.1,0.1l0,0l0.1,0.1l0,0c0.5,0.4,1.2,0.4,2,0
				L-160.8,261.3L-160.8,261.3z"/>
			<path class="st10" d="M-177.3,269.5c-0.3-0.3-0.5-0.8-0.5-1.4v0.1c0,0.6,0.2,1.1,0.5,1.4V269.5L-177.3,269.5z"/>
		</g>
		<path class="st10" d="M-155.9,258.5l-4.9,2.8l0.1,0.1l4.9-2.8c0.7-0.4,1-0.9,1-1.4l0,0C-154.9,257.7-155.3,258.2-155.9,258.5z"/>
		<path class="st11" d="M-175.2,244.9l19.4,11c0.6,0.4,1,0.8,1,1.3l0,0c0-0.5-0.3-1-1-1.4l-19.4-11c-1.4-0.8-2.5-0.1-2.5,1.5v0.1
			C-177.8,244.8-176.6,244.2-175.2,244.9z"/>
	</g>
</g>
<g id="Layer_2">
</g>
</svg>
