<?xml version="1.0" encoding="utf-8"?>
<!-- Generator: Adobe Illustrator 19.0.0, SVG Export Plug-In . SVG Version: 6.00 Build 0)  -->
<svg version="1.1" id="Layer_1" xmlns="http://www.w3.org/2000/svg" xmlns:xlink="http://www.w3.org/1999/xlink" x="0px" y="0px"
	 viewBox="0 0 512 512" style="enable-background:new 0 0 512 512;" xml:space="preserve">
<style type="text/css">
	.st0{fill:#167CC1;}
</style>
<g id="XMLID_1_">
	<path id="XMLID_177_" class="st0" d="M306.9,369.7c-3,0-5.4,2.4-5.4,5.4v11.8H118V134.6h183.6v11.8c0,3,2.4,5.4,5.4,5.4
		c2.9,0,5.4-2.4,5.4-5.4v-40c0-15.5-12.7-28.2-28.2-28.2H135.4c-15.5,0-28.2,12.7-28.2,28.2V415c0,15.5,12.7,28.2,28.2,28.2H284
		c15.5,0,28.2-12.7,28.2-28.2v-40C312.2,372.1,309.9,369.7,306.9,369.7z M135.4,89H284c9.7,0,17.5,7.9,17.5,17.5v17.5H117.9v-17.5
		C117.9,96.8,125.8,89,135.4,89z M284.1,432.6H135.4c-9.7,0-17.5-7.9-17.5-17.5v-17.5h183.6v17.5
		C301.6,424.7,293.7,432.6,284.1,432.6z"/>
	<path id="XMLID_148_" class="st0" d="M198.3,111.7h22.9c3,0,5.4-2.4,5.4-5.4c0-2.9-2.4-5.4-5.4-5.4h-22.9c-3,0-5.4,2.4-5.4,5.4
		C193,109.3,195.3,111.7,198.3,111.7z"/>
	<path id="XMLID_147_" class="st0" d="M181.1,111.7c1.5,0,2.8-0.6,3.8-1.6c1-1,1.6-2.4,1.6-3.8c0-1.4-0.6-2.8-1.6-3.8
		c-1-1-2.4-1.6-3.8-1.6c-1.4,0-2.8,0.6-3.8,1.6s-1.6,2.4-1.6,3.8c0,1.4,0.6,2.8,1.6,3.8C178.3,111.2,179.8,111.7,181.1,111.7z"/>
	<path id="XMLID_172_" class="st0" d="M409.8,163.9H175.4c-15.5,0-28.2,12.7-28.2,28.2v137.2c0,15.5,12.7,28.2,28.2,28.2h234.3
		c15.5,0,28.2-12.7,28.2-28.2V192.2C438.1,176.6,425.4,163.9,409.8,163.9z M427.3,329.3c0,9.7-7.9,17.5-17.5,17.5H175.4
		c-9.7,0-17.5-7.9-17.5-17.5V192.2c0-9.7,7.9-17.5,17.5-17.5h234.3c9.7,0,17.5,7.9,17.5,17.5L427.3,329.3L427.3,329.3L427.3,329.3z"
		/>
	<path id="XMLID_132_" class="st0" d="M186.9,294.6h40c3,0,5.4-2.4,5.4-5.4c0-3-2.4-5.4-5.4-5.4h-40c-3,0-5.4,2.4-5.4,5.4
		C181.6,292.3,183.9,294.6,186.9,294.6z"/>
	<path id="XMLID_128_" class="st0" d="M284.1,283.9h-40c-3,0-5.4,2.4-5.4,5.4c0,3,2.4,5.4,5.4,5.4h40c3,0,5.4-2.4,5.4-5.4
		S287,283.9,284.1,283.9z"/>
	<path id="XMLID_126_" class="st0" d="M341.2,283.9h-40c-3,0-5.4,2.4-5.4,5.4c0,3,2.4,5.4,5.4,5.4h40c3,0,5.4-2.4,5.4-5.4
		S344.1,283.9,341.2,283.9z"/>
	<path id="XMLID_125_" class="st0" d="M341.2,312.6h-40c-3,0-5.4,2.4-5.4,5.4c0,3,2.4,5.4,5.4,5.4h40c3,0,5.4-2.4,5.4-5.4
		C346.6,314.9,344.1,312.6,341.2,312.6z"/>
	<path id="XMLID_124_" class="st0" d="M398.3,283.9h-40c-3,0-5.4,2.4-5.4,5.4c0,3,2.4,5.4,5.4,5.4h40c3,0,5.4-2.4,5.4-5.4
		C403.7,286.4,401.3,283.9,398.3,283.9z"/>
	<path id="XMLID_123_" class="st0" d="M284.1,312.6h-97.1c-3,0-5.4,2.4-5.4,5.4c0,3,2.4,5.4,5.4,5.4h97.1c3,0,5.4-2.4,5.4-5.4
		C289.3,314.9,287,312.6,284.1,312.6z"/>
	<path id="XMLID_162_" class="st0" d="M188.3,248.9h42.9c3.7,0,6.7-3,6.7-6.7v-31.4c0-3.7-3-6.7-6.7-6.7h-42.9c-3.7,0-6.7,3-6.7,6.7
		v31.4C181.6,245.9,184.6,248.9,188.3,248.9z M227.3,238.2h-12.2v-23.6h12.1L227.3,238.2L227.3,238.2z M192.3,214.7h12.1v23.6h-12.1
		V214.7z"/>
	<path id="XMLID_159_" class="st0" d="M381.2,203.9h-22.9c-12.4,0-22.6,10.1-22.6,22.6s10.1,22.6,22.6,22.6h22.9
		c12.4,0,22.6-10.1,22.6-22.6C403.7,214,393.6,203.9,381.2,203.9z M381.2,238.2h-22.9c-6.5,0-11.8-5.3-11.8-11.8s5.3-11.8,11.8-11.8
		h22.9c6.5,0,11.8,5.3,11.8,11.8C393,233,387.7,238.2,381.2,238.2z"/>
	<g id="XMLID_156_">
		<g id="XMLID_157_">
			<path id="XMLID_101_" class="st0" d="M209.8,425.4c-5.7,0-10.3-4.6-10.3-10.3c0-5.7,4.6-10.3,10.3-10.3c5.7,0,10.3,4.6,10.3,10.3
				C220.1,420.8,215.4,425.4,209.8,425.4z"/>
		</g>
	</g>
</g>
</svg>
