<?xml version="1.0" encoding="utf-8"?>
<!-- Generator: Adobe Illustrator 19.0.0, SVG Export Plug-In . SVG Version: 6.00 Build 0)  -->
<svg version="1.1" id="Layer_1" xmlns="http://www.w3.org/2000/svg" xmlns:xlink="http://www.w3.org/1999/xlink" x="0px" y="0px"
	 viewBox="0 0 512 512" style="enable-background:new 0 0 512 512;" xml:space="preserve">
<style type="text/css">
	.st0{fill:#187CC1;}
</style>
<g>
	<path class="st0" d="M436.6,188.7c-5.3-58.2-46.5-100.4-98.1-100.4c-34.4,0-65.8,18.5-83.5,48.1c-17.5-30-47.7-48.1-81.5-48.1
		c-51.6,0-92.8,42.2-98,100.4c-0.4,2.6-2.1,16.1,3.1,38.2c7.5,31.8,24.9,60.8,50.2,83.7l126.2,114.5l128.4-114.5
		c25.3-22.9,42.7-51.9,50.2-83.7C438.7,204.8,437,191.2,436.6,188.7z M419.9,223.6c-6.9,29.1-22.7,55.6-45.9,76.5L255,406.3
		L138.1,300.2c-23.2-21-39.1-47.5-46-76.6c-4.9-20.9-2.9-32.7-2.9-32.8l0.1-0.7c4.5-51,39.9-88,84.2-88c32.7,0,61.4,20.1,75.1,52.4
		l6.4,15.2l6.4-15.2c13.4-31.8,43.7-52.4,77.1-52.4c44.3,0,79.7,37,84.3,88.7C422.8,191,424.8,202.8,419.9,223.6z"/>
</g>
</svg>
