<?xml version="1.0" encoding="utf-8"?>
<!-- Generator: Adobe Illustrator 19.0.0, SVG Export Plug-In . SVG Version: 6.00 Build 0)  -->
<svg version="1.1" id="Layer_1" xmlns="http://www.w3.org/2000/svg" xmlns:xlink="http://www.w3.org/1999/xlink" x="0px" y="0px"
	 viewBox="0 0 512 512" style="enable-background:new 0 0 512 512;" xml:space="preserve">
<style type="text/css">
	.st0{fill:#197DC1;}
	.st1{fill:none;stroke:#197DC1;stroke-width:12;stroke-miterlimit:10;}
</style>
<g id="XMLID_2_">
	<path id="XMLID_14_" class="st0" d="M419.9,109.3h-21V102c0-3.6-2.9-6.4-6.4-6.4s-6.4,2.9-6.4,6.4v7.3h-21.5V102
		c0-3.6-2.9-6.4-6.4-6.4s-6.4,2.9-6.4,6.4v7.3h-21.5V102c0-3.6-2.9-6.4-6.4-6.4c-3.6,0-6.4,2.9-6.4,6.4v7.3h-21.5V102
		c0-3.6-2.9-6.4-6.4-6.4s-6.4,2.9-6.4,6.4v7.3h-21.5V102c0-3.6-2.9-6.4-6.4-6.4s-6.4,2.9-6.4,6.4v7.3h-21.5V102
		c0-3.6-2.9-6.4-6.4-6.4c-3.6,0-6.4,2.9-6.4,6.4v7.3h-21.5V102c0-3.6-2.9-6.4-6.4-6.4s-6.4,2.9-6.4,6.4v7.3h-21.5V102
		c0-3.6-2.9-6.4-6.4-6.4s-6.4,2.9-6.4,6.4v7.3H124V102c0-3.6-2.9-6.4-6.4-6.4c-3.6,0-6.4,2.9-6.4,6.4v7.3h-21
		c-18.7,0-33.9,15.2-33.9,33.9v247.3c0,18.7,15.2,33.9,33.9,33.9h329.8c18.7,0,33.9-15.2,33.9-33.9V143.2
		C453.8,124.5,438.6,109.3,419.9,109.3z M90.1,122.2h21v7.3c0,3.6,2.9,6.4,6.4,6.4c3.6,0,6.4-2.9,6.4-6.4v-7.3h21.5v7.3
		c0,3.6,2.9,6.4,6.4,6.4s6.4-2.9,6.4-6.4v-7.3h21.5v7.3c0,3.6,2.9,6.4,6.4,6.4s6.4-2.9,6.4-6.4v-7.3h21.5v7.3c0,3.6,2.9,6.4,6.4,6.4
		c3.6,0,6.4-2.9,6.4-6.4v-7.3h21.5v7.3c0,3.6,2.9,6.4,6.4,6.4s6.4-2.9,6.4-6.4v-7.3h21.5v7.3c0,3.6,2.9,6.4,6.4,6.4s6.4-2.9,6.4-6.4
		v-7.3h21.5v7.3c0,3.6,2.9,6.4,6.4,6.4c3.6,0,6.4-2.9,6.4-6.4v-7.3h21.5v7.3c0,3.6,2.9,6.4,6.4,6.4s6.4-2.9,6.4-6.4v-7.3h21.5v7.3
		c0,3.6,2.9,6.4,6.4,6.4s6.4-2.9,6.4-6.4v-7.3h21c11.6,0,21,9.4,21,21v7.3H69.1v-7.3C69.1,131.6,78.5,122.2,90.1,122.2z
		 M419.9,411.6H90.1c-11.6,0-21-9.4-21-21V163.4h371.8v227.1C440.9,402.1,431.5,411.6,419.9,411.6z"/>
	<g id="XMLID_5_">
		<path id="XMLID_13_" class="st0" d="M157,201.4h32.6c2.8,0,5.1-2.3,5.1-5.1s-2.3-5.1-5.1-5.1H157c-2.8,0-5.1,2.3-5.1,5.1
			S154.2,201.4,157,201.4z"/>
		<path id="XMLID_12_" class="st0" d="M157,250.4h32.6c2.8,0,5.1-2.3,5.1-5.1s-2.3-5.1-5.1-5.1H157c-2.8,0-5.1,2.3-5.1,5.1
			S154.2,250.4,157,250.4z"/>
		<path id="XMLID_11_" class="st0" d="M244.1,240.2h-32.6c-2.8,0-5.1,2.3-5.1,5.1s2.3,5.1,5.1,5.1h32.6c2.8,0,5.1-2.3,5.1-5.1
			S246.9,240.2,244.1,240.2z"/>
		<path id="XMLID_10_" class="st0" d="M265.9,201.4h32.6c2.8,0,5.1-2.3,5.1-5.1s-2.3-5.1-5.1-5.1h-32.6c-2.8,0-5.1,2.3-5.1,5.1
			S263,201.4,265.9,201.4z"/>
		<path id="XMLID_9_" class="st0" d="M352.9,191.2h-32.6c-2.8,0-5.1,2.3-5.1,5.1s2.3,5.1,5.1,5.1h32.6c2.8,0,5.1-2.3,5.1-5.1
			S355.7,191.2,352.9,191.2z"/>
		<path id="XMLID_8_" class="st0" d="M352.9,240.2h-32.6c-2.8,0-5.1,2.3-5.1,5.1s2.3,5.1,5.1,5.1h32.6c2.8,0,5.1-2.3,5.1-5.1
			S355.7,240.2,352.9,240.2z"/>
		<path id="XMLID_7_" class="st0" d="M240.5,176.4l-18.2,18.2l-7.3-7.3c-2-2-5.2-2-7.2,0c-2,2-2,5.2,0,7.2l10.9,10.9
			c1,1,2.3,1.5,3.6,1.5c1.3,0,2.6-0.5,3.6-1.5l21.8-21.8c2-2,2-5.2,0-7.2C245.7,174.4,242.5,174.4,240.5,176.4L240.5,176.4z"/>
		<path id="XMLID_6_" class="st0" d="M294.9,225.3l-18.2,18.2l-7.3-7.3c-2-2-5.2-2-7.2,0c-2,2-2,5.2,0,7.2l10.9,10.9
			c1,1,2.3,1.5,3.6,1.5s2.6-0.5,3.6-1.5l21.8-21.8c2-2,2-5.2,0-7.2C300.1,223.4,296.9,223.4,294.9,225.3L294.9,225.3z"/>
	</g>
	<path id="XMLID_4_" class="st0" d="M271,322.9l-22.9,22.9l-9.2-9.2c-2.5-2.5-6.6-2.5-9.1,0c-2.5,2.5-2.5,6.6,0,9.1l13.7,13.7
		c1.3,1.3,2.9,1.9,4.6,1.9s3.3-0.6,4.6-1.9l27.5-27.5c2.5-2.5,2.5-6.6,0-9.1C277.6,320.3,273.6,320.3,271,322.9z"/>
	<circle id="XMLID_3_" class="st1" cx="255" cy="338" r="58.3"/>
</g>
</svg>
