<?xml version="1.0" encoding="utf-8"?>
<!-- Generator: Adobe Illustrator 19.0.0, SVG Export Plug-In . SVG Version: 6.00 Build 0)  -->
<svg version="1.1" id="Layer_1" xmlns="http://www.w3.org/2000/svg" xmlns:xlink="http://www.w3.org/1999/xlink" x="0px" y="0px"
	 viewBox="0 0 512 512" style="enable-background:new 0 0 512 512;" xml:space="preserve">
<style type="text/css">
	.st0{fill:#167CC1;}
</style>
<path id="XMLID_114_" class="st0" d="M422.1,379.8c-2.9-27.3-25.6-48.7-52.9-48.7c-17,0-33.1,8.6-43.1,22.6
	c-1.9-0.4-3.9-0.5-5.9-0.5c-15.4,0-29.1,10.5-33.7,25.4c-12.6,7.6-20.7,21.5-20.7,36.6c0,23.3,18.5,42.2,41.2,42.2h71.6
	c0.5,0,0.8,0,1.2-0.1c0.4,0,0.8,0.1,1.3,0.1h28.6c21.4,0,38.8-17.8,38.8-39.8C448.7,400.2,437.8,385.1,422.1,379.8z M409.9,443.9
	H381l-1.2-0.1l-72.4,0.1c-15.4,0-27.9-13-27.9-29c0-11.1,6.3-21.3,16-26.1l2.9-1.5l0.7-3.2c2.2-10.4,11.3-17.9,21.4-17.9
	c2.2,0,4.6,0.4,6.8,1.2l5.2,1.7l2.7-4.8c7.3-12.6,20.1-20.3,34.2-20.3c21.7,0,39.6,18.2,39.9,40.7l0.1,5.4l5.3,1.1
	c12.1,2.3,20.9,13.3,20.9,26C435.4,432.1,423.9,443.9,409.9,443.9z"/>
<path id="XMLID_111_" class="st0" d="M116.5,118.5c-14.6,0-26.6,11.9-26.6,26.6s11.9,26.6,26.6,26.6s26.6-11.9,26.6-26.6
	C143.1,130.4,131.2,118.5,116.5,118.5z M116.5,158.4c-7.3,0-13.3-5.9-13.3-13.3c0-7.3,5.9-13.3,13.3-13.3s13.3,5.9,13.3,13.3
	C129.8,152.3,123.9,158.4,116.5,158.4z"/>
<path id="XMLID_108_" class="st0" d="M176.4,118.5c-14.6,0-26.6,11.9-26.6,26.6s11.9,26.6,26.6,26.6c14.7,0,26.5-11.9,26.5-26.7
	S191,118.5,176.4,118.5z M176.4,158.4c-7.3,0-13.3-5.9-13.3-13.3c0-7.3,5.9-13.3,13.3-13.3c7.3,0,13.3,5.9,13.3,13.3
	C189.6,152.3,183.6,158.4,176.4,158.4z"/>
<path id="XMLID_90_" class="st0" d="M236.1,118.5c-14.6,0-26.6,11.9-26.6,26.6s11.9,26.6,26.6,26.6c14.7,0,26.6-11.9,26.6-26.6
	C262.7,130.4,250.8,118.5,236.1,118.5z M236.1,158.4c-7.3,0-13.3-5.9-13.3-13.3c0-7.3,5.9-13.3,13.3-13.3c7.4,0,13.3,5.9,13.3,13.3
	C249.4,152.3,243.5,158.4,236.1,158.4z"/>
<path id="XMLID_87_" class="st0" d="M229.5,417.4H76.8V198.2h318.8v86.4c0,3.7,2.9,6.6,6.6,6.6s6.6-2.9,6.6-6.6v-93v-93
	c0-3.7-2.9-6.6-6.6-6.6H70c-3.7,0-6.6,2.9-6.6,6.6v93v232.6c0,3.7,2.9,6.6,6.6,6.6h159.5c3.7,0,6.6-2.9,6.6-6.6
	C236.1,420.4,233.2,417.4,229.5,417.4z M76.8,105.2h318.8v79.7H76.7L76.8,105.2L76.8,105.2z"/>
<g id="XMLID_74_">
	<path id="XMLID_78_" class="st0" d="M245.2,305.4c3.7-2.9,6-7.4,6-12.4c0-8.7-7.1-15.8-15.8-15.8s-15.8,7.1-15.8,15.8
		c0,5,2.4,9.6,6,12.4c-2.8,1.6-5.2,3.9-7.2,6.7c-2-2.2-4.4-4.1-6.9-5.5c-0.2-0.2-0.5-0.2-0.8-0.3c5-3.5,8.4-9.5,8.4-16.1
		c0-10.9-8.8-19.7-19.7-19.7c-10.9,0-19.7,8.8-19.7,19.7c0,6.6,3.3,12.6,8.4,16.1c-0.3,0.1-0.5,0.2-0.8,0.3
		c-2.5,1.5-4.8,3.3-6.9,5.5c-1.9-2.8-4.5-5.1-7.2-6.7c3.7-2.9,6-7.4,6-12.4c0-8.7-7.1-15.8-15.8-15.8s-15.8,7.1-15.8,15.8
		c0,5,2.4,9.6,6,12.4c-7.5,4.3-12,12.9-12,22.5c0,1.6,1.4,3.1,3.1,3.1h27.3c-0.2,1.5-0.2,2.9-0.2,4.4c0,1.6,1.4,3.1,3.1,3.1h49
		c1.6,0,3.1-1.4,3.1-3.1c0-1.5-0.1-2.9-0.2-4.4h27.3c1.6,0,3.1-1.4,3.1-3.1C257.2,318.3,252.7,309.7,245.2,305.4z M235.5,283.3
		c5.3,0,9.6,4.4,9.6,9.6c0,5.3-4.4,9.6-9.6,9.6c-5.3,0-9.6-4.4-9.6-9.6C225.8,287.7,230.2,283.3,235.5,283.3z M235.5,308.8
		c1.2,0,2.3-0.2,3.5-0.4l-3.5,3.6l-3.5-3.6C233.1,308.6,234.3,308.8,235.5,308.8z M199.6,276.6c7.6,0,13.6,6.1,13.6,13.6
		c0,7.6-6.1,13.6-13.6,13.6c-7.6,0-13.6-6.1-13.6-13.6S192.1,276.6,199.6,276.6z M199.6,309.9c2.5,0,4.9-0.5,6.9-1.3l-6.9,7.2
		l-6.9-7.2C194.8,309.5,197.1,309.9,199.6,309.9z M163.7,283.3c5.3,0,9.6,4.4,9.6,9.6c0,5.3-4.4,9.6-9.6,9.6c-5.2,0-9.6-4.4-9.6-9.6
		C154,287.7,158.4,283.3,163.7,283.3z M163.7,308.8c1.2,0,2.3-0.2,3.5-0.4l-3.5,3.6l-3.5-3.6C161.4,308.6,162.6,308.8,163.7,308.8z"
		/>
	<path id="XMLID_75_" class="st0" d="M280.6,302.4h-6.2c-2.2-37.8-32.5-68.1-70.3-70.3v-6.2c0-2.4-1.9-4.4-4.4-4.4
		c-2.5,0-4.4,1.9-4.4,4.4v6.2c-37.8,2.2-68.1,32.5-70.3,70.3h-6.2c-2.4,0-4.4,1.9-4.4,4.4c0,2.4,1.9,4.4,4.4,4.4h6.2
		c2.2,37.8,32.5,68.1,70.3,70.3v6.2c0,2.4,1.9,4.4,4.4,4.4c2.5,0,4.4-1.9,4.4-4.4v-6.2c37.8-2.2,68.1-32.5,70.3-70.3h6.2
		c2.4,0,4.4-1.9,4.4-4.4C285,304.4,283,302.4,280.6,302.4z M200,372.8c-0.2,0-0.2,0-0.4,0s-0.2,0-0.4,0
		c-36.1-0.2-65.5-29.6-65.7-65.7c0-0.2,0-0.2,0-0.4c0-0.2,0-0.2,0-0.4c0.2-36.1,29.6-65.5,65.7-65.7c0.2,0,0.2,0,0.4,0
		c0.2,0,0.2,0,0.4,0c36.1,0.2,65.5,29.6,65.7,65.7c0,0.2,0,0.2,0,0.4c0,0.2,0,0.2,0,0.4C265.5,343.3,236.1,372.6,200,372.8z"/>
</g>
</svg>
