<?xml version="1.0" encoding="utf-8"?>
<!-- Generator: Adobe Illustrator 17.0.0, SVG Export Plug-In . SVG Version: 6.00 Build 0)  -->
<!DOCTYPE svg PUBLIC "-//W3C//DTD SVG 1.1//EN" "http://www.w3.org/Graphics/SVG/1.1/DTD/svg11.dtd">
<svg version="1.1" id="Layer_1" xmlns="http://www.w3.org/2000/svg" xmlns:xlink="http://www.w3.org/1999/xlink" x="0px" y="0px"
	 width="57.625px" height="56.875px" viewBox="0 0 57.625 56.875" enable-background="new 0 0 57.625 56.875" xml:space="preserve">
<g transform="translate(800 160)">
	<g id="icon-cog">
		<path fill="#72CDF1" d="M714.214,734.924c0-3.354,2.064-6,5.168-7.818c-0.563-1.869-1.299-3.664-2.211-5.35
			c-3.488,0.912-6.307-0.454-8.675-2.822c-2.374-2.371-3.101-5.194-2.189-8.675c-1.686-0.912-3.475-1.658-5.35-2.214
			c-1.818,3.107-5.104,5.171-8.454,5.171s-6.634-2.064-8.454-5.171c-1.875,0.557-3.664,1.302-5.35,2.211
			c0.909,3.485,0.186,6.307-2.186,8.678c-2.371,2.368-5.194,3.734-8.675,2.826c-0.912,1.683-1.654,3.478-2.214,5.347
			c3.107,1.818,5.171,4.464,5.171,7.818c0,3.35-2.064,6.637-5.171,8.458c0.56,1.872,1.302,3.664,2.214,5.35
			c3.485-0.912,6.304-0.186,8.675,2.186s3.094,5.19,2.186,8.675c1.686,0.912,3.478,1.658,5.35,2.214
			c1.821-3.11,5.104-5.171,8.454-5.171s6.64,2.064,8.458,5.171c1.875-0.56,3.664-1.302,5.35-2.214
			c-0.912-3.485-0.189-6.304,2.189-8.675c2.368-2.368,5.187-3.734,8.675-2.826c0.912-1.686,1.651-3.478,2.211-5.35
			C716.279,740.922,714.215,738.276,714.214,734.924L714.214,734.924z M692.502,746.614c-6.454,0-11.686-5.235-11.686-11.69
			s5.232-11.69,11.686-11.69c6.458,0,11.69,5.235,11.69,11.69S698.96,746.614,692.502,746.614z"/>
	</g>
</g>
<g transform="translate(800 160)">
	<g id="icon-cog_1_">
		<path fill="#72CDF1" d="M-749.479-131.565c0-3.354,2.064-6,5.168-7.818c-0.563-1.869-1.299-3.664-2.211-5.35
			c-3.488,0.912-6.307-0.454-8.675-2.822c-2.374-2.371-3.101-5.194-2.189-8.675c-1.686-0.912-3.475-1.658-5.35-2.214
			c-1.818,3.107-5.104,5.171-8.454,5.171s-6.634-2.064-8.454-5.171c-1.875,0.557-3.664,1.302-5.35,2.211
			c0.909,3.485,0.186,6.307-2.186,8.678c-2.371,2.368-5.194,3.734-8.675,2.826c-0.912,1.683-1.654,3.478-2.214,5.347
			c3.107,1.818,5.171,4.464,5.171,7.818c0,3.35-2.064,6.637-5.171,8.458c0.56,1.872,1.302,3.664,2.214,5.35
			c3.485-0.912,6.304-0.186,8.675,2.186s3.094,5.19,2.186,8.675c1.686,0.912,3.478,1.658,5.35,2.214
			c1.821-3.11,5.104-5.171,8.454-5.171s6.64,2.064,8.458,5.171c1.875-0.56,3.664-1.302,5.35-2.214
			c-0.912-3.485-0.189-6.304,2.189-8.675c2.368-2.368,5.187-3.734,8.675-2.826c0.912-1.686,1.651-3.478,2.211-5.35
			C-747.414-125.567-749.478-128.213-749.479-131.565L-749.479-131.565z M-771.191-119.875c-6.454,0-11.686-5.235-11.686-11.69
			s5.232-11.69,11.686-11.69c6.458,0,11.69,5.235,11.69,11.69S-764.733-119.875-771.191-119.875z"/>
	</g>
</g>
</svg>
