<?xml version="1.0" encoding="utf-8"?>
<!-- Generator: Adobe Illustrator 17.0.0, SVG Export Plug-In . SVG Version: 6.00 Build 0)  -->
<!DOCTYPE svg PUBLIC "-//W3C//DTD SVG 1.1//EN" "http://www.w3.org/Graphics/SVG/1.1/DTD/svg11.dtd">
<svg version="1.1" id="Isolation_Mode" xmlns="http://www.w3.org/2000/svg" xmlns:xlink="http://www.w3.org/1999/xlink" x="0px"
	 y="0px" width="61.667px" height="61.5px" viewBox="0 0 61.667 61.5" enable-background="new 0 0 61.667 61.5"
	 xml:space="preserve">
<g transform="translate(880 240)">
	<g id="icon-lifebuoy">
		<path fill="#72CDF1" d="M-849.56-238.688c-16.256,0.218-29.261,13.571-29.043,29.83c0.218,16.262,13.574,29.261,29.83,29.046
			c16.259-0.218,29.264-13.574,29.043-29.83C-819.948-225.904-833.304-238.906-849.56-238.688z M-849.505-234.851
			c4.384-0.061,8.525,0.992,12.16,2.883l-3.962,6.605c-2.374-1.155-5.04-1.808-7.859-1.808c-2.816,0-5.482,0.653-7.856,1.811
			l-3.958-6.602C-857.543-233.754-853.646-234.794-849.505-234.851L-849.505-234.851z M-865.275-201.395l-6.598,3.955
			c-1.792-3.434-2.832-7.331-2.886-11.469c-0.061-4.387,0.992-8.528,2.883-12.16l6.602,3.965c-1.158,2.371-1.811,5.034-1.811,7.853
			C-867.085-206.435-866.432-203.769-865.275-201.395L-865.275-201.395L-865.275-201.395z M-848.824-183.654
			c-4.384,0.061-8.528-0.992-12.16-2.883l3.962-6.605c2.374,1.158,5.04,1.811,7.856,1.811c2.819,0,5.485-0.65,7.856-1.808
			l3.958,6.598C-840.789-184.752-844.683-183.712-848.824-183.654L-848.824-183.654z M-849.166-195.174
			c-7.776,0-14.077-6.304-14.077-14.077c0-7.776,6.304-14.08,14.077-14.08c7.779,0,14.08,6.304,14.08,14.08
			S-841.387-195.174-849.166-195.174z M-833.057-201.395c1.158-2.374,1.811-5.04,1.811-7.856c0-2.819-0.653-5.482-1.811-7.856
			l6.598-3.962c1.792,3.437,2.835,7.331,2.89,11.472c0.058,4.387-0.995,8.528-2.886,12.16L-833.057-201.395z"/>
	</g>
</g>
</svg>
