<?xml version="1.0" encoding="utf-8"?>
<!-- Generator: Adobe Illustrator 17.0.0, SVG Export Plug-In . SVG Version: 6.00 Build 0)  -->
<!DOCTYPE svg PUBLIC "-//W3C//DTD SVG 1.1//EN" "http://www.w3.org/Graphics/SVG/1.1/DTD/svg11.dtd">
<svg version="1.1" id="Layer_1" xmlns="http://www.w3.org/2000/svg" xmlns:xlink="http://www.w3.org/1999/xlink" x="0px" y="0px"
	 width="61.12px" height="62.5px" viewBox="0 0 61.12 62.5" enable-background="new 0 0 61.12 62.5" xml:space="preserve">
<g transform="translate(1040 240)">
	<g id="icon-clock">
		<path fill="#72CDF1" d="M-1009.44-238.19c-16.259,0-29.44,13.184-29.44,29.44c0,16.259,13.181,29.44,29.44,29.44
			S-980-192.491-980-208.75S-993.181-238.19-1009.44-238.19z M-1009.44-185.71c-12.726,0-23.04-10.317-23.04-23.04
			s10.314-23.04,23.04-23.04c12.726,0,23.04,10.317,23.04,23.04S-996.714-185.71-1009.44-185.71z M-1007.2-225.39h-4.48v17.568
			l10.896,10.896l3.168-3.168l-9.584-9.584L-1007.2-225.39L-1007.2-225.39z"/>
	</g>
</g>
</svg>
