<?xml version="1.0" encoding="utf-8"?>
<!-- Generator: Adobe Illustrator 17.0.0, SVG Export Plug-In . SVG Version: 6.00 Build 0)  -->
<!DOCTYPE svg PUBLIC "-//W3C//DTD SVG 1.1//EN" "http://www.w3.org/Graphics/SVG/1.1/DTD/svg11.dtd">
<svg version="1.1" id="Layer_1" xmlns="http://www.w3.org/2000/svg" xmlns:xlink="http://www.w3.org/1999/xlink" x="0px" y="0px"
	 width="612px" height="792px" viewBox="0 0 612 792" enable-background="new 0 0 612 792" xml:space="preserve">
<g>
	<path d="M301.192,189.822c110.599-0.002,198.584,88.407,198.566,199.523C499.74,499.15,410.612,586.996,299.084,586.71
		c-108.443-0.279-197.342-90.493-196.442-200.46C103.527,278.242,192.166,189.824,301.192,189.822z M135.537,388.48
		c0.002,90.315,74.332,165.517,163.643,165.562c92.644,0.047,167.832-73.401,167.863-163.976
		c0.031-92.478-73.556-167.509-164.306-167.53C209.887,222.516,135.535,296.309,135.537,388.48z"/>
	<path d="M395.781,477.707c-5.814,5.156-11.174,9.911-16.965,15.047c-0.58-0.455-2.145-1.553-3.565-2.815
		c-31.089-27.643-62.127-55.343-93.266-82.929c-6.545-5.798-5.415-13.605-5.261-20.676c0.399-18.368,1.748-36.716,2.717-55.073
		c1.234-23.381,2.458-46.763,3.716-70.143c0.115-2.142,0.441-4.272,0.705-6.753c6.894,0,13.376,0,20.557,0
		c0.553,9.081,1.145,17.971,1.626,26.866c1.805,33.431,3.46,66.871,5.523,100.285c0.217,3.518,1.952,7.629,4.335,10.222
		C342.112,420.255,368.589,448.525,395.781,477.707z"/>
</g>
</svg>
