<?xml version="1.0" encoding="utf-8"?>
<!-- Generator: Adobe Illustrator 17.0.0, SVG Export Plug-In . SVG Version: 6.00 Build 0)  -->
<!DOCTYPE svg PUBLIC "-//W3C//DTD SVG 1.1//EN" "http://www.w3.org/Graphics/SVG/1.1/DTD/svg11.dtd">
<svg version="1.1" id="Layer_1" xmlns="http://www.w3.org/2000/svg" xmlns:xlink="http://www.w3.org/1999/xlink" x="0px" y="0px"
	 width="612px" height="792px" viewBox="0 0 612 792" enable-background="new 0 0 612 792" xml:space="preserve">
<path d="M546.484,671.26c-160.322,0-320.645,0-480.967,0c-22.32-14.572-28.616-35.098-28.447-61.463
	c0.979-152.617,0.979-305.247,0-457.865c-0.169-26.364,6.127-46.891,28.447-61.463c160.322,0,320.645,0,480.967,0
	c22.32,14.572,28.616,35.098,28.447,61.463c-0.979,152.617-0.979,305.247,0,457.865C575.099,636.162,568.803,656.688,546.484,671.26
	z M526.744,624.863c0-163.774,0-325.779,0-487.223c-148.485,0-295.373,0-441.888,0c0,163.268,0,324.737,0,487.223
	C232.392,624.863,378.741,624.863,526.744,624.863z"/>
<path d="M239.227,246.247c74.6,0,146.991,0,221.344,0c0,14.352,0,28.265,0,44.196c-72.982,0-146.511,0-221.344,0
	C239.227,276.355,239.227,262.399,239.227,246.247z"/>
<path d="M239.689,470.509c73.807,0,146.788,0,221.304,0c0,15.032,0,28.93,0,44.282c-73.785,0-146.665,0-221.304,0
	C239.689,500.917,239.689,487.001,239.689,470.509z"/>
<path d="M459.731,402.525c-73.726,0-146.601,0-220.63,0c0-14.281,0-27.591,0-42.629c72.36,0,145.091,0,220.63,0
	C459.731,372.657,459.731,386.7,459.731,402.525z"/>
<path d="M151.26,246.642c14.435,0,27.621,0,42.181,0c0,15.007,0,28.885,0,44.254c-14.068,0-27.219,0-42.181,0
	C151.26,276.232,151.26,261.794,151.26,246.642z"/>
<path d="M193.469,471.046c0,15.084,0,28.961,0,44.005c-14.522,0-27.705,0-42.449,0c0-14.474,0-28.374,0-44.005
	C164.475,471.046,177.627,471.046,193.469,471.046z"/>
<path d="M150.685,402.539c0-15.673,0-29.013,0-43.344c14.568,0,27.93,0,42.719,0c0,14.368,0,28.341,0,43.344
	C179.046,402.539,165.684,402.539,150.685,402.539z"/>
</svg>
