<?xml version="1.0" encoding="utf-8"?>
<!-- Generator: Adobe Illustrator 17.0.0, SVG Export Plug-In . SVG Version: 6.00 Build 0)  -->
<!DOCTYPE svg PUBLIC "-//W3C//DTD SVG 1.1//EN" "http://www.w3.org/Graphics/SVG/1.1/DTD/svg11.dtd">
<svg version="1.1" id="Layer_1" xmlns="http://www.w3.org/2000/svg" xmlns:xlink="http://www.w3.org/1999/xlink" x="0px" y="0px"
	 width="612px" height="792px" viewBox="0 0 612 792" enable-background="new 0 0 612 792" xml:space="preserve">
<path d="M193.308,370.301c9.405,13.285,20.229,23.222,33.739,30.017c26.479,13.317,57.813,9.007,80.189-11.173
	c4.805-4.333,9.201-9.166,13.422-14.081c2.53-2.946,4.535-4.215,8.355-1.889c3.18,1.936,7.013,2.802,11.198,4.384
	c-19.021,23.285-28.976,49.542-28.629,79.47c0.346,29.875,10.609,56.109,29.567,79.986c-10.586,0.804-20.415,1.979-30.267,2.215
	c-24.802,0.594-49.629,1.484-74.418,0.948c-46.365-1.004-92.602-3.995-137.727-15.892c-9.103-2.4-17.932-5.868-26.833-8.997
	c-3.607-1.268-5.762-3.818-5.503-7.944c1.977-31.401,10.9-60.355,30.755-85.236c8.222-10.303,18.866-17.887,30.832-23.266
	C149.616,389.123,171.434,379.831,193.308,370.301z"/>
<path d="M257.49,396.716c-21.191-0.943-38.598-11.187-51.265-28.758c-6.119-8.489-9.88-18.676-14.732-28.082
	c-1.041-2.018-1.856-4.278-3.331-5.929c-14.85-16.616-23.112-35.516-20.855-58.253c0.494-4.979,2.067-9.239,5.766-12.837
	c1.315-1.28,2.102-3.646,2.186-5.557c0.497-11.309-0.031-22.712,1.183-33.932c2.65-24.478,14.116-44.012,36.23-55.657
	c17.977-9.466,37.381-12.649,57.85-10.058c12.547,1.588,24.418,4.858,35.574,10.471c10.216,5.141,17.194,13.237,20.063,24.723
	c0.866,3.467,3.429,6.486,5.039,9.796c2.953,6.07,7.295,11.96,8.324,18.364c1.907,11.864,1.747,24.052,2.691,36.086
	c0.175,2.233,1.369,4.433,2.316,6.548c1.713,3.824,4.742,7.435,5.216,11.376c2.695,22.409-5.215,41.393-19.862,58.028
	c-1.893,2.15-3.467,4.828-4.407,7.533c-8.681,24.99-23.598,44.124-49.384,53.155c-3.114,1.091-6.373,1.864-9.627,2.425
	C263.857,396.609,261.155,396.513,257.49,396.716z"/>
<path d="M325.953,456.375c0.094-61.662,49.198-109.914,111.229-109.439c60.194,0.461,108.585,48.464,108.438,109.878
	c-0.155,64.781-53.216,110.475-111.368,109.694C374.375,565.703,325.741,516.734,325.953,456.375z M460.313,400.745
	c-0.191,0.144-0.767,0.479-1.223,0.934c-21.559,21.533-43.124,43.06-64.616,64.66c-1.356,1.363-2.381,3.2-3.133,4.995
	c-6.342,15.145-12.593,30.328-18.843,45.511c-0.52,1.262-0.831,2.61-1.44,4.56c2.019-0.725,3.266-1.116,4.471-1.614
	c15.023-6.206,30.068-12.358,45.028-18.714c2.518-1.07,4.978-2.711,6.92-4.637c20.453-20.284,40.798-40.677,61.163-61.05
	c1.141-1.141,2.189-2.375,2.967-3.223C481.03,421.548,470.737,411.212,460.313,400.745z M469.824,391.355
	c10.448,10.707,20.604,21.114,30.759,31.521c8.961-8.534,8.908-22.329-0.213-31.287
	C491.569,382.946,477.581,383.103,469.824,391.355z"/>
<path d="M398.681,472.05c8.344,2.206,9.13,3.212,9.678,11.79c6.675-0.162,9.254,1.438,11.135,6.487
	c0.877,2.353,0.427,3.616-1.967,4.575c-8.137,3.259-16.168,6.786-24.352,9.916c-1.27,0.486-3.579-0.097-4.589-1.052
	c-0.966-0.914-1.59-3.238-1.116-4.457C391.003,490.224,394.847,481.261,398.681,472.05z"/>
</svg>
