<svg width="91" height="55" viewBox="0 0 91 55" fill="none" xmlns="http://www.w3.org/2000/svg">
<path d="M8.12999 0.18396C3.67114 0.18396 0.0499878 3.79794 0.0499878 8.24796V46.552C0.0499878 51.0021 3.67114 54.616 8.12999 54.616H82.87C87.3288 54.616 90.95 51.0021 90.95 46.552V8.24796C90.95 3.79794 87.3288 0.18396 82.87 0.18396H8.12999ZM8.12999 2.19996H82.87C84.4196 2.19996 85.8126 2.77472 86.8785 3.71196L49.1927 33.0385C46.8374 34.8699 44.0972 34.8711 41.744 33.0385L4.1215 3.71196C5.18735 2.77472 6.58034 2.19996 8.12999 2.19996ZM2.82749 5.28696L40.4815 34.6135C43.4815 36.9498 47.4545 36.9467 50.4552 34.6135L88.1725 5.28696C88.6567 6.15838 88.93 7.17061 88.93 8.24796V46.552C88.93 49.9201 86.2447 52.6 82.87 52.6H8.12999C4.75527 52.6 2.06999 49.9201 2.06999 46.552V8.24796C2.06999 7.17061 2.34329 6.15838 2.82749 5.28696Z" fill="black"/>
</svg>
