<?xml version="1.0" encoding="utf-8"?>
<!-- Generator: Adobe Illustrator 17.0.0, SVG Export Plug-In . SVG Version: 6.00 Build 0)  -->
<!DOCTYPE svg PUBLIC "-//W3C//DTD SVG 1.1//EN" "http://www.w3.org/Graphics/SVG/1.1/DTD/svg11.dtd">
<svg version="1.1" id="Layer_1" xmlns="http://www.w3.org/2000/svg" xmlns:xlink="http://www.w3.org/1999/xlink" x="0px" y="0px"
	 width="612px" height="792px" viewBox="0 0 612 792" enable-background="new 0 0 612 792" xml:space="preserve">
<g>
	<path d="M379.388,493.504c9.922-14.703,18.906-28.66,28.557-42.139c9.654-13.485,19.976-26.491,30.85-40.822
		c12.649,1.629,26.454,5.961,39.074,13.705c16.574,10.171,25.312,25.822,26.574,44.5c1.772,26.204,2.502,52.577-2.679,78.638
		c-0.099,0.495-0.194,0.992-0.321,1.48c-6.594,25.717-13.764,32.061-40.115,35.132c-48.89,5.696-97.933,6.289-146.99,3.296
		c-19.353-1.181-38.612-3.99-57.885-6.298c-8.662-1.038-14.346-5.951-18.313-13.924c-7.995-16.068-10.387-33.334-10.592-50.727
		c-0.219-18.629,0.413-37.427,2.771-55.884c2.496-19.539,15.024-32.846,32.862-40.478c10.347-4.428,21.329-7.374,30.936-10.619
		c20.349,28.439,39.816,55.64,59.664,83.377c1.807-9.633,3.217-19.505,5.573-29.145c3.297-13.482-0.126-24.862-9.081-35.018
		c-2.004-2.271-3.841-4.71-5.566-7.203c-4.072-5.889-2.784-9.157,4.318-9.399c11.631-0.397,23.295-0.395,34.926-0.008
		c7.214,0.24,9.32,4.183,4.095,9.004C364.657,442.553,374.391,467.665,379.388,493.504z"/>
	<path d="M366.522,202.931c52.213-0.242,93.481,40.917,93.935,93.689c0.444,51.424-41.454,94.633-92.898,94.289
		c-62.741-0.419-94.615-49.394-94.808-92.905C272.515,244.09,312.905,203.18,366.522,202.931z"/>
	<path d="M237.295,414.017c-30.377,26.427-28.92,60.632-28.584,95.66c-14.87,0.469-29.441,1.709-43.95,1.193
		c-18.9-0.673-37.749-2.758-56.623-4.201c-7.682-0.588-12.871-4.513-14.779-11.904c-1.875-7.26-3.712-14.639-4.377-22.072
		c-0.786-8.784-0.675-17.698-0.29-26.527c0.998-22.879,11.5-34.607,34.083-39.64c6.811-1.518,12.23-0.746,18.427,2.972
		c18.555,11.134,38.245,11.616,56.725,0.541c8.536-5.116,15.806-5.047,24.125-2.024
		C226.722,409.711,231.303,411.647,237.295,414.017z"/>
	<path d="M169.781,401.836c-30.661-0.055-54.905-24.209-54.984-54.785c-0.081-31.009,24.21-55.447,55.179-55.511
		c30.742-0.064,55.378,24.605,55.364,55.438C225.324,378.009,201.136,401.892,169.781,401.836z"/>
</g>
</svg>
