<svg width="120" height="120" viewBox="0 0 120 120" fill="none" xmlns="http://www.w3.org/2000/svg">
<path fill-rule="evenodd" clip-rule="evenodd" d="M60 108C86.5097 108 108 86.5097 108 60C108 33.4903 86.5097 12 60 12C33.4903 12 12 33.4903 12 60C12 86.5097 33.4903 108 60 108ZM60 120C93.1371 120 120 93.1371 120 60C120 26.8629 93.1371 0 60 0C26.8629 0 0 26.8629 0 60C0 93.1371 26.8629 120 60 120Z" fill="#0392CF"/>
<path fill-rule="evenodd" clip-rule="evenodd" d="M86.4827 66.5378C89.4994 67.909 90.8333 71.4661 89.4621 74.4828C83.2545 88.1395 70.7297 93 59.9999 93C48.9296 93 37.8426 87.9083 30.7325 74.8731C29.1458 71.964 30.2177 68.3194 33.1268 66.7326C36.0359 65.1459 39.6805 66.2178 41.2673 69.1269C46.1572 78.0917 53.0703 81 59.9999 81C67.2701 81 74.7453 77.8605 78.5377 69.5172C79.9089 66.5005 83.466 65.1666 86.4827 66.5378Z" fill="#0392CF"/>
</svg>
